<svg aria-hidden="true" style="position: absolute; width: 0; height: 0; overflow: hidden;" version="1.1" xmlns="http://www.w3.org/2000/svg" xmlns:xlink="http://www.w3.org/1999/xlink">
<defs>


<symbol id="c_eye" viewBox="0 0 28.297 16.507">


    <g id="visibility" transform="translate(0 -2.357)">
    <g id="Group_105" data-name="Group 105" transform="translate(10.642 7.104)">
      <g id="Group_104" data-name="Group 104">
        <path id="Path_94" data-name="Path 94" d="M199.391,192.714a.589.589,0,1,0-.834.834,3.537,3.537,0,1,1-5,5,.589.589,0,0,0-.834.834,4.716,4.716,0,1,0,6.669-6.669Z" transform="translate(-192.55 -192.542)" />
      </g>
    </g>
    <g id="Group_107" data-name="Group 107" transform="translate(9.433 5.894)">
      <g id="Group_106" data-name="Group 106">
        <path id="Path_95" data-name="Path 95" d="M176.206,170.74a4.669,4.669,0,0,0-5.538,4.635,4.615,4.615,0,0,0,.083.822.59.59,0,0,0,.579.487.523.523,0,0,0,.1-.009.59.59,0,0,0,.478-.683,3.418,3.418,0,0,1-.064-.617A3.495,3.495,0,0,1,176,171.9a.589.589,0,1,0,.205-1.16Z" transform="translate(-170.668 -170.659)" />
      </g>
    </g>
    <g id="Group_109" data-name="Group 109" transform="translate(7.375 4.004)">
      <g id="Group_108" data-name="Group 108" transform="translate(0 0)">
        <path id="Path_96" data-name="Path 96" d="M154.218,142.687a28.638,28.638,0,0,0-7.722-6.159.59.59,0,0,0-.541,1.048,27.706,27.706,0,0,1,7.021,5.492c-1.405,1.522-6.936,7.074-12.767,7.074a13.594,13.594,0,0,1-5.928-1.421.589.589,0,1,0-.512,1.061,14.742,14.742,0,0,0,6.44,1.539c7.264,0,13.737-7.551,14.01-7.873A.589.589,0,0,0,154.218,142.687Z" transform="translate(-133.435 -136.461)" />
      </g>
    </g>
    <g id="Group_111" data-name="Group 111" transform="translate(0 2.357)">
      <g id="Group_110" data-name="Group 110" transform="translate(0 0)">
        <path id="Path_97" data-name="Path 97" d="M18.017,107.338a12.173,12.173,0,0,0-3.868-.679c-7.264,0-13.737,7.551-14.01,7.873a.589.589,0,0,0-.033.718,21.887,21.887,0,0,0,5.408,5.128.585.585,0,0,0,.816-.166.588.588,0,0,0-.165-.816,21.56,21.56,0,0,1-4.814-4.451c1.357-1.474,6.925-7.106,12.8-7.106a11.036,11.036,0,0,1,3.492.617.581.581,0,0,0,.746-.37A.588.588,0,0,0,18.017,107.338Z" transform="translate(0 -106.659)" />
      </g>
    </g>
  </g>



</symbol>



</defs>
</svg>
