<svg xmlns="http://www.w3.org/2000/svg" width="322.148" height="137.701" viewBox="0 0 322.148 137.701">
  <g id="Group_92" data-name="Group 92" transform="translate(0 0.527)">
    <path id="Path_93" data-name="Path 93" d="M65.5,0C81.869,0,87.667,12.131,98.05,23.6c6.592,7.28,6.773,9.187,12.574,18.726.107.173-.318,5.866,0,6.421,3.98,6.941,14.714,15.672,14.714,24.879,0,38.542-23.22,61.262-59.835,61.262S2.01,107.087,2.01,68.544,28.887,0,65.5,0Z" transform="translate(3.856 2.284)" fill="#fff"/>
    <path id="Path_67" data-name="Path 67" d="M981.4,185.123c6.584,12.023-6.09,23.571,2.265,29.429,10.412,7.3,17.768-13.453,18.922-27.67.715-8.809,2.508-35.139-13.673-39.671-4.236-1.186-7.142-.9-10.725,1.779-7.763,5.8-9.3,14.2-6.154,18.371C974.805,171.037,978.138,179.166,981.4,185.123Z" transform="translate(-878.625 -93.44)" fill="#9b9997"/>
    <path id="Path_68" data-name="Path 68" d="M820.12,164.285c13.573,21.517,50.3,28.122,50.3,15.418,0-11.67-62.4-31.786-28.721-78.169,9.888-13.619,50.334-10.735,52.934-24.98,4.648-25.463-45.544-26.5-64.6-12.214C820.877,71.2,785.479,109.37,820.12,164.285Z" transform="translate(-805.224 -52.839)" fill="#cbaf6d"/>
    <path id="Path_69" data-name="Path 69" d="M899.757,92.961s7.558,11.855,19.265,0c0,0,5.334-13.04-10.521-15.856L896.2,56.359s-9.484-10.966-24.3-1.481c0,0-14.818,7.647-14.522,29.015,0,0,.3,11.439,10.966,10.847,0,0,9.484-.3,9.484-15.856,0,0-.889-20.3-24.747-18.227,0,0-17.19-2.371-33.046,35.416,0,0-13.04,30.971,6.52,62.683,0,0,17.634,26.121,49.05,26.027,0,0,49.643,4.2,58.682-36.992,0,0,5.631-34.083-12.6-46.382l-6.223,13.485s-13.337-5.631-23.562,1.334l-7.854-15.708-7.409,16.153" transform="translate(-809.909 -51.015)" fill="none" stroke="#707070" stroke-miterlimit="10" stroke-width="1"/>
    <ellipse id="Ellipse_12" data-name="Ellipse 12" cx="1.464" cy="1.464" rx="1.464" ry="1.464" transform="translate(81.43 20.843)" stroke="#000" stroke-miterlimit="10" stroke-width="0.5"/>
    <ellipse id="Ellipse_15" data-name="Ellipse 15" cx="1.464" cy="1.464" rx="1.464" ry="1.464" transform="translate(81.43 20.843)" fill="gray" stroke="gray" stroke-miterlimit="10" stroke-width="0.5"/>
    <ellipse id="Ellipse_13" data-name="Ellipse 13" cx="1.5" cy="1.5" rx="1.5" ry="1.5" transform="translate(78.647 80.117)" stroke="#000" stroke-miterlimit="10" stroke-width="0.5"/>
    <ellipse id="Ellipse_17" data-name="Ellipse 17" cx="1.5" cy="1.5" rx="1.5" ry="1.5" transform="translate(78.647 80.117)" fill="gray" stroke="gray" stroke-miterlimit="10" stroke-width="0.5"/>
    <ellipse id="Ellipse_14" data-name="Ellipse 14" cx="1.464" cy="1.464" rx="1.464" ry="1.464" transform="translate(104.626 78.689)" stroke="#000" stroke-miterlimit="10" stroke-width="0.5"/>
    <ellipse id="Ellipse_16" data-name="Ellipse 16" cx="1.464" cy="1.464" rx="1.464" ry="1.464" transform="translate(104.626 78.689)" fill="gray" stroke="gray" stroke-miterlimit="10" stroke-width="0.5"/>
    <path id="Path_70" data-name="Path 70" d="M973.6,218.357s2.662-.516,3.042,0-3.042,4.131-3.042,4.131-3.423-3.615-3.043-4.131S973.6,218.357,973.6,218.357Z" transform="translate(-878.635 -125.23)" stroke="#000" stroke-miterlimit="10" stroke-width="0.25"/>
    <path id="Path_90" data-name="Path 90" d="M973.6,218.357s2.662-.516,3.042,0-3.042,4.131-3.042,4.131-3.423-3.615-3.043-4.131S973.6,218.357,973.6,218.357Z" transform="translate(-878.635 -125.23)" fill="gray" stroke="gray" stroke-miterlimit="10" stroke-width="0.25"/>
    <path id="Path_71" data-name="Path 71" d="M963.491,222.633s.25,12.49-15.685,6.366" transform="translate(-868.545 -127.231)" fill="none" stroke="#000" stroke-miterlimit="10" stroke-width="0.5"/>
    <path id="Path_91" data-name="Path 91" d="M963.491,222.633s.25,12.49-15.685,6.366" transform="translate(-868.545 -127.231)" fill="none" stroke="gray" stroke-miterlimit="10" stroke-width="0.5"/>
    <path id="Path_72" data-name="Path 72" d="M974.483,222.633s-.251,12.49,15.685,6.366" transform="translate(-880.392 -127.231)" fill="none" stroke="#000" stroke-miterlimit="10" stroke-width="0.5"/>
    <path id="Path_92" data-name="Path 92" d="M974.483,222.633s-.251,12.49,15.685,6.366" transform="translate(-880.392 -127.231)" fill="none" stroke="gray" stroke-miterlimit="10" stroke-width="0.5"/>
    <path id="Path_73" data-name="Path 73" d="M993.8,111.686s2.662-.516,3.042,0-3.042,4.131-3.042,4.131-3.423-3.615-3.042-4.131S993.8,111.686,993.8,111.686Z" transform="translate(-887.605 -77.857)" stroke="#000" stroke-miterlimit="10" stroke-width="0.25"/>
    <path id="Path_87" data-name="Path 87" d="M993.8,111.686s2.662-.516,3.042,0-3.042,4.131-3.042,4.131-3.423-3.615-3.042-4.131S993.8,111.686,993.8,111.686Z" transform="translate(-887.605 -77.857)" fill="gray" stroke="gray" stroke-miterlimit="10" stroke-width="0.25"/>
    <text id="Pet_Love" data-name="Pet Love" transform="translate(151.404 123.852)" fill="gray" font-size="19" font-family="Poppins-ExtraLight, Poppins" font-weight="200" letter-spacing="0.569em"><tspan x="0" y="0">Pet Love</tspan></text>
    <g id="Group_90" data-name="Group 90" transform="translate(151.008 8.322)">
      <g id="Group_87" data-name="Group 87" transform="translate(0 0.761)">
        <path id="Path_74" data-name="Path 74" d="M614.349,426.064a146.893,146.893,0,0,1-14.726,29.362,1.858,1.858,0,0,1-2.627.47l-.1-.074a1.846,1.846,0,0,1-.448-2.54,125.785,125.785,0,0,0,14.425-28.492,1.847,1.847,0,0,1,2.873-.865h0A1.875,1.875,0,0,1,614.349,426.064Z" transform="translate(-596.124 -376.984)" fill="gray"/>
        <path id="Path_75" data-name="Path 75" d="M616.149,392.59l-.19.239a1.761,1.761,0,0,1-2.559.2A102.542,102.542,0,0,0,599.96,382.7a1.753,1.753,0,0,1-.417-2.611h0a1.761,1.761,0,0,1,2.283-.375,122.766,122.766,0,0,1,14.084,10.426A1.776,1.776,0,0,1,616.149,392.59Z" transform="translate(-597.56 -355.951)" fill="gray"/>
        <path id="Path_76" data-name="Path 76" d="M621.844,347.8l-.143.164a1.722,1.722,0,0,1-2.453.145A117.137,117.137,0,0,0,605.6,337.695a1.732,1.732,0,0,1-.441-2.492h0a1.746,1.746,0,0,1,2.345-.4,152.152,152.152,0,0,1,14.154,10.535A1.738,1.738,0,0,1,621.844,347.8Z" transform="translate(-600.27 -334.514)" fill="gray"/>
        <path id="Path_77" data-name="Path 77" d="M683.225,338.848q-15.2,6.03-38.033,7.709a1.754,1.754,0,0,0-1.633,1.739v27.041q0,22.078-12.253,37.886a1.76,1.76,0,0,1-2.383.354l-.241-.166a1.752,1.752,0,0,1-.34-2.559q11.548-14.224,11.55-35.516V345.2a1.756,1.756,0,0,1,1.671-1.742q25.664-1.335,40.287-7.819a1.732,1.732,0,0,1,1.96.375h0A1.745,1.745,0,0,1,683.225,338.848Z" transform="translate(-611.3 -334.977)" fill="gray"/>
        <path id="Path_78" data-name="Path 78" d="M705.3,368.573a106.387,106.387,0,0,1-27.963,6.849,1.382,1.382,0,0,0-1.222,1.365v44.84a1.378,1.378,0,0,0,1.9,1.281,75.511,75.511,0,0,0,10.682-5.733,1.383,1.383,0,0,1,2.075.753l.14.465a1.4,1.4,0,0,1-.632,1.6,158.6,158.6,0,0,1-16.572,8.567,1.379,1.379,0,0,1-1.748-.589l-.369-.643a1.468,1.468,0,0,1,.216-1.659,3.374,3.374,0,0,0,.636-2.166v-49.6a1.387,1.387,0,0,1,1.255-1.37q18.98-1.889,30.08-7.008a1.368,1.368,0,0,1,1.672.411l.4.519A1.382,1.382,0,0,1,705.3,368.573Z" transform="translate(-632.045 -349.248)" fill="gray"/>
        <path id="Path_79" data-name="Path 79" d="M725.57,443.234l-.093.095a1.741,1.741,0,0,1-2.363.117Q704.887,427.853,701.871,399a1.75,1.75,0,0,1,1.334-1.875h0a1.729,1.729,0,0,1,2.111,1.511,89.635,89.635,0,0,0,2.318,12.783,1.734,1.734,0,0,0,2.8.852,68.173,68.173,0,0,0,11.475-11.992,1.734,1.734,0,0,1,2.49-.359l.105.084a1.735,1.735,0,0,1,.282,2.432q-4.724,6.031-14.414,14.1a1.755,1.755,0,0,0-.529,1.96,53.471,53.471,0,0,0,15.579,22.19A1.737,1.737,0,0,1,725.57,443.234Z" transform="translate(-646.566 -364.359)" fill="gray"/>
      </g>
      <g id="Group_86" data-name="Group 86" transform="translate(91.604 0)">
        <path id="Path_63" data-name="Path 63" d="M1666.26,66.012c-.444,1.147-.862,2.307-1.361,3.43a.876.876,0,0,1-.782.33c-.247-.067-.635-.522-.582-.648.511-1.217,1.1-2.4,1.674-3.594Z" transform="translate(-1630.378 -35.862)" fill="none"/>
        <path id="Path_66" data-name="Path 66" d="M1666.045,61.913c-.812-.293-1.628-.574-2.42-.918a8.008,8.008,0,0,1,.286-.928l2.5.827Z" transform="translate(-1630.42 -33.286)" fill="none"/>
        <path id="Path_80" data-name="Path 80" d="M800.449,454.972a115.1,115.1,0,0,1-25.074,12.517,1.824,1.824,0,0,1-2.149-.741h0a1.8,1.8,0,0,1,.957-2.67A101.421,101.421,0,0,0,798.362,451.9a1.8,1.8,0,0,1,2.44.377l.062.081A1.814,1.814,0,0,1,800.449,454.972Z" transform="translate(-772.082 -389.602)" fill="gray"/>
        <path id="Path_81" data-name="Path 81" d="M849.128,430.8H814.559a1.676,1.676,0,0,0-1.677,1.677v21.108a1.678,1.678,0,0,1-1.677,1.677h-.313a1.677,1.677,0,0,1-1.677-1.677V432.477a1.677,1.677,0,0,0-1.677-1.677H772.969a1.676,1.676,0,0,1-1.676-1.677h0a1.676,1.676,0,0,1,1.676-1.677h34.569a1.677,1.677,0,0,0,1.677-1.676v-3a1.677,1.677,0,0,1,1.677-1.677h.313a1.677,1.677,0,0,1,1.677,1.677v3a1.676,1.676,0,0,0,1.677,1.676h34.569a1.677,1.677,0,0,1,1.677,1.677h0A1.677,1.677,0,0,1,849.128,430.8Z" transform="translate(-771.293 -375.057)" fill="gray"/>
        <path id="Path_82" data-name="Path 82" d="M798.489,377.994l-.1.05a1.767,1.767,0,0,1-2.476-1.049l-.483-1.531a1.78,1.78,0,0,0-1.98-1.211q-10.929,1.762-17.987,2.757a1.765,1.765,0,0,1-1.952-1.3l-.148-.568a1.741,1.741,0,0,1,.48-1.7,118.793,118.793,0,0,0,12.093-13.759,1.775,1.775,0,0,0-1.617-2.839l-7.985.969a1.766,1.766,0,0,1-1.934-1.357l-.107-.463a1.743,1.743,0,0,1,.408-1.565q5.815-6.506,11.882-19.471a1.777,1.777,0,0,1,2.233-.918l.04.015a1.776,1.776,0,0,1,.95,2.45,109.609,109.609,0,0,1-8.65,14.628,1.765,1.765,0,0,0,1.641,2.768q4.956-.538,7.195-.84a1.715,1.715,0,0,0,1.209-.746q1.774-2.622,3.981-6.261a1.772,1.772,0,0,1,2.418-.612h0a1.779,1.779,0,0,1,.58,2.488,152,152,0,0,1-16.6,21.876,1.763,1.763,0,0,0,1.527,2.96q5.445-.745,8.5-1.206a1.76,1.76,0,0,0,1.336-2.474l-1.1-2.429a1.766,1.766,0,0,1,.856-2.326l.007,0a1.764,1.764,0,0,1,2.333.788,77.592,77.592,0,0,1,4.349,10.756A1.783,1.783,0,0,1,798.489,377.994Z" transform="translate(-772.253 -333.468)" fill="gray"/>
        <path id="Path_83" data-name="Path 83" d="M839.928,339.211q1-1.846,1.734-3.514a1.888,1.888,0,0,0-1.349-2.6h0a1.9,1.9,0,0,0-2.147,1.148,59.084,59.084,0,0,1-3.327,6.845,1.881,1.881,0,0,1-1.641.932h-3.233a1.892,1.892,0,0,0-1.892,1.893v30.291a1.892,1.892,0,0,0,1.892,1.893h17.189a1.893,1.893,0,0,0,1.893-1.893V343.917a1.893,1.893,0,0,0-1.893-1.893h-5.575A1.9,1.9,0,0,1,839.928,339.211Zm3.56,33.491h-9.855a1.893,1.893,0,0,1-1.892-1.893v-8.87a1.893,1.893,0,0,1,1.892-1.893h9.855a1.892,1.892,0,0,1,1.892,1.893v8.87A1.893,1.893,0,0,1,843.488,372.7Zm0-16.1h-9.855a1.893,1.893,0,0,1-1.892-1.893V347.4a1.893,1.893,0,0,1,1.892-1.893h9.855a1.893,1.893,0,0,1,1.892,1.893v7.306A1.892,1.892,0,0,1,843.488,356.6Z" transform="translate(-798.38 -333.058)" fill="gray"/>
        <path id="Path_84" data-name="Path 84" d="M894.92,466.491l-.109.138a1.828,1.828,0,0,1-2.442.409A193.834,193.834,0,0,0,869,454.325a1.848,1.848,0,0,1-.675-2.826h0a1.853,1.853,0,0,1,2.2-.536,203.05,203.05,0,0,1,23.917,12.812A1.86,1.86,0,0,1,894.92,466.491Z" transform="translate(-817.389 -389.228)" fill="gray"/>
        <path id="Path_85" data-name="Path 85" d="M898.619,377.983l-.109.054a1.776,1.776,0,0,1-2.492-1.068l-.461-1.506a1.776,1.776,0,0,0-1.948-1.238l-17.739,2.518a1.775,1.775,0,0,1-1.962-1.293l-.167-.611a1.75,1.75,0,0,1,.473-1.723,105.006,105.006,0,0,0,11.575-13.539,1.783,1.783,0,0,0-1.649-2.826l-8.5,1.052a1.777,1.777,0,0,1-1.95-1.363l-.1-.428a1.753,1.753,0,0,1,.43-1.595q5.8-6.29,11.858-19.442a1.783,1.783,0,0,1,2.248-.933h0a1.787,1.787,0,0,1,.958,2.472,121.254,121.254,0,0,1-8.731,14.571,1.767,1.767,0,0,0,1.665,2.765l7.471-.893a1.808,1.808,0,0,0,1.3-.824q2.092-3.3,3.7-6.056a1.771,1.771,0,0,1,2.433-.62h0a1.789,1.789,0,0,1,.609,2.461q-8.462,13.912-15.716,21.74a1.771,1.771,0,0,0,1.517,2.965q4.455-.535,8.241-1.083a1.779,1.779,0,0,0,1.343-2.53q-.545-1.164-1.114-2.3a1.775,1.775,0,0,1,.836-2.422h0a1.781,1.781,0,0,1,2.319.794,66.708,66.708,0,0,1,4.571,10.814A1.763,1.763,0,0,1,898.619,377.983Z" transform="translate(-820.073 -333.473)" fill="gray"/>
      </g>
    </g>
  </g>
</svg>
