<svg aria-hidden="true" style="position: absolute; width: 0; height: 0; overflow: hidden;" version="1.1" xmlns="http://www.w3.org/2000/svg" xmlns:xlink="http://www.w3.org/1999/xlink">
<defs>


<!--hotel-dogsize-1-5kg -->
<symbol id="hotel-dogsize-1-5kg" viewBox="0 0 50.277 30.455">
   <g id="Group_325" data-name="Group 325" transform="translate(-757.245 -1901.243)">
    <path id="Path_148" data-name="Path 148" d="M39.4,16.54c.51,2.6,3.43,4.09,4.24,6.61a4.56,4.56,0,0,1-1.22,4.64c-.38.34-.85.88-.51,1.27a.86.86,0,0,0,.59.22,3.32,3.32,0,0,0,2.82-.55A3.57,3.57,0,0,0,46,27.49l1.47-3.91a22.83,22.83,0,0,0,1.74-6.46,7.77,7.77,0,0,0-2-6.17c-2-2-5.22-2.2-8.07-2a38.46,38.46,0,0,0-5.63.85A57.548,57.548,0,0,1,27.83,11a12.69,12.69,0,0,1-7.7-1.33A10.89,10.89,0,0,1,16.58,6.3c-.54-.81-1-1.7-1.55-2.49A8.35,8.35,0,0,0,10.45.71a4.64,4.64,0,0,0-2.88,0C6.58,1.16,5.86,2,4.9,2.51a17.38,17.38,0,0,1-3.55.76C1,3.36.54,3.57.5,4a1,1,0,0,0,.5.74C2.48,5.78,2.58,7,5.77,7.22c1.69.13,3.73,2.33,4.3,3.93.77,2.16-.2,4.76.95,6.74,1.48,2.56,3.73,5.18,6.69,5.16.38,0,.89-.31.67-.62L18,26.33a1.72,1.72,0,0,1-.26.9c-.29.38-.91.6-.84,1.07a.77.77,0,0,0,.25.42A2.85,2.85,0,0,0,21.49,28c.55-1.11.21-2.29.4-3.46A.87.87,0,0,1,22.1,24a1.78,1.78,0,0,1,1.24-.3,32.309,32.309,0,0,0,4.29-.06,15.63,15.63,0,0,0,3-.94A91.5,91.5,0,0,1,41,19.39" transform="translate(757.5 1901.519)" fill="none" stroke-miterlimit="10" stroke-width="1.5"/>
    <path id="Path_149" data-name="Path 149" d="M22.24,19.57a13.78,13.78,0,0,1-.33,5.31" transform="translate(757.5 1901.519)" fill="none" stroke-miterlimit="10" stroke-width="1.5"/>
    <path id="Path_150" data-name="Path 150" d="M11.22,4.63l-1.06,5.63a2.12,2.12,0,0,0,0,1.32,1.41,1.41,0,0,0,.82.69,2.89,2.89,0,0,0,2.88-.79A7.79,7.79,0,0,0,15.51,8.8" transform="translate(757.5 1901.519)" fill="none"  stroke-miterlimit="10" stroke-width="1.5"/>
  </g>
</symbol>
<!--hotel-dogsize-1-5kg -->


<!--hotel-dogsize-5-10kg -->
<symbol id="hotel-dogsize-5-10kg" viewBox="0 0 50.695 43.176">
  <g id="Group_324" data-name="Group 324" transform="translate(-893.193 -1888.231)">
    <path id="Path_159" data-name="Path 159" d="M9.61,4a9.43,9.43,0,0,0,.51,3.33c.19.55.59,1.19,1.17,1.12a1.22,1.22,0,0,0,.61-.33,4.72,4.72,0,0,0,1.59-4" transform="translate(893.469 1888.494)" fill="none"  stroke-miterlimit="10" stroke-width="1.5"/>
    <path id="Path_160" data-name="Path 160" d="M5.66,1.61c-1.52,1.55-3,3.15-4.4,4.79a3.85,3.85,0,0,0-.6.85,2.54,2.54,0,0,0,1.15,3,7.47,7.47,0,0,0,3.34.91,6.75,6.75,0,0,0,3-.14" transform="translate(893.469 1888.494)" fill="none" stroke-miterlimit="10" stroke-width="1.5"/>
    <path id="Path_161" data-name="Path 161" d="M5.29,8.38l.39,3.77c.43,4.23,1,8.76,3.79,12,1.43,1.64,3.36,2.82,4.62,4.59a16,16,0,0,1,1.72,3.64l1.4,3.73c.35,1,.68,2.08.09,2.91a6.5,6.5,0,0,1-1.2,1,1.26,1.26,0,0,0-.5,1.38,6.07,6.07,0,0,0,3.11.76,3.74,3.74,0,0,0,2.65-1.89A7.48,7.48,0,0,0,22.27,37a15.38,15.38,0,0,0-1.94-8.93" transform="translate(893.469 1888.494)" fill="none"  stroke-miterlimit="10" stroke-width="1.5"/>
    <path id="Path_162" data-name="Path 162" d="M37.89,20.32c.1,2.7.23,5.52,1.55,7.87s3.42,3.78,5.13,5.68c1,1.08,1.84,2.57,1.3,3.92a7.72,7.72,0,0,1-1.48,1.86,2,2,0,0,0-.5,2.19,4.66,4.66,0,0,0,4.78-2.17,7.19,7.19,0,0,0,.76-5.4C49,32,47.7,29.85,48.19,27.63c.2-.94.71-1.78,1-2.71a8.78,8.78,0,0,0-.15-4A33.06,33.06,0,0,0,42.33,7.09c-1.18-1.45-2.75-2.9-4.62-2.8a3.37,3.37,0,0,0-2.94,2.23,3.37,3.37,0,0,0,1,3.56,4.92,4.92,0,0,0,4.12.78c.5-.09,1.06-.29,1.22-.77S40.79,9,40.29,8.6A8.28,8.28,0,0,0,37,7.23" transform="translate(893.469 1888.494)" fill="none" stroke-miterlimit="10" stroke-width="1.5"/>
    <path id="Path_163" data-name="Path 163" d="M5.69,1.91A4,4,0,0,1,9.5.58,7.81,7.81,0,0,1,12.22,2l6.52,4.49a11.15,11.15,0,0,0,3.08,1.68,11.27,11.27,0,0,0,3.12.33l8.84.09" transform="translate(893.469 1888.494)" fill="none" stroke-miterlimit="10" stroke-width="1.5"/>
    <path id="Path_164" data-name="Path 164" d="M21.37,30.93h.35c.05.12-.21.11-.21,0s.15-.2.27-.24c5.51-1.91,11.61-2.31,16.63-5.28.22-.13.45-.42.26-.59" transform="translate(893.469 1888.494)" fill="none"  stroke-miterlimit="10" stroke-width="1.5"/>
    <path id="Path_165" data-name="Path 165" d="M13.73,4.13l-.48-1.74" transform="translate(893.469 1888.494)" fill="none" stroke-miterlimit="10" stroke-width="1.5"/>
    <path id="Path_166" data-name="Path 166" d="M33.62,8.56a1.3,1.3,0,0,0,.89-.1" transform="translate(893.469 1888.494)" fill="none"  stroke-miterlimit="10" stroke-width="1.5"/>
  </g>
</symbol>
<!--hotel-dogsize-5-10kg -->


<!--hotel-dogsize-10-20kg -->
<symbol id="hotel-dogsize-10-20kg"  viewBox="0 0 59.708 48.481">
    <path id="Path_180" data-name="Path 180" d="M23.33,24.45c-1.4,1.92-1.45,4.47-1.51,6.84q-.15,6.33-.9,12.61A4.85,4.85,0,0,1,20,46.59a2.49,2.49,0,0,1-3,.48,1,1,0,0,1-.44-.45,1.26,1.26,0,0,1,.07-.87c.8-2.57.57-5.57.68-8.26.19-4.67-3.29-8.6-4.87-13-1.67-4.69-1.18-10-3-14.59A1.36,1.36,0,0,0,9,9.22a1.51,1.51,0,0,0-.82-.12,9.28,9.28,0,0,1-7-3C.68,5.56.28,4.83.64,4.27a1.46,1.46,0,0,1,1.13-.52C3.58,3.54,5.83,4,6.89,2.47c.31-.42.46-.94.78-1.35A1,1,0,0,1,9,.8a4.33,4.33,0,0,1,4.8,1.29c1.29,1.47,1.33,3.69,2.4,5.33a9.08,9.08,0,0,0,.92,1.13,34,34,0,0,0,23.5,10.68c1.77.06,3.68,0,5.12,1.05s2,2.87,2.56,4.58c1.42,4.64,3.09,9.4,6.46,12.9a11.5,11.5,0,0,1,1.8,2.09,8.42,8.42,0,0,1,.71,1.91l1.32,4.64a2.58,2.58,0,0,1-2.08.7,2,2,0,0,1-1.19-1.79c-.07-.76.07-1.53,0-2.28-.33-2.32-2.78-3.57-4.76-4.81A21.56,21.56,0,0,1,43,30.14c-.67-1.28-1.29-2.7-2.51-3.47A5,5,0,0,0,38.41,26c-6.31-.81-10.5,4.31-16.85,4" transform="translate(0.273 0.28)" fill="none" stroke-miterlimit="10" stroke-width="1.5"/>
  <path id="Path_182" data-name="Path 182" d="M44.8,19.81a11.12,11.12,0,0,0,10.66-4.52" transform="translate(0.273 0.28)" fill="none"  stroke-miterlimit="10" stroke-width="1.5"/>
</symbol>
<!--hotel-dogsize-10-20kg -->


<!--hotel-dogsize-20-40kg -->
<symbol id="hotel-dogsize-20-40kg"  viewBox="0 0 59.708 48.481">
<g id="Group_604" data-name="Group 604" transform="translate(-1173.229 -1880.249)">
    <path id="Path_167" data-name="Path 167" d="M11.73.74a4.82,4.82,0,0,0-2.86.9A4.21,4.21,0,0,0,7,4.42c0,.06.07,0,0-.08" transform="translate(1173.504 1880.513)" fill="none"  stroke-miterlimit="10" stroke-width="1.5"/>
    <path id="Path_168" data-name="Path 168" d="M7,4.34c-1.64.1-1,.19-2.64.34C3.06,4.8,1.53,5,.83,6.18a2.78,2.78,0,0,0-.1,2.44,6.5,6.5,0,0,0,1.44,2.06,8.16,8.16,0,0,0,3.52,2.41,8.81,8.81,0,0,0,2.76.24,16.55,16.55,0,0,0,7.76-1.8" transform="translate(1173.504 1880.513)" fill="none"  stroke-miterlimit="10" stroke-width="1.5"/>
    <path id="Path_169" data-name="Path 169" d="M11.67.88c0,.05-.12,0-.09-.07s.09-.07.15-.07c.89-.11,1.79-.18,2.69-.22a6.2,6.2,0,0,1,2.43.23,6.53,6.53,0,0,1,1.48.83l1.55,1.06c.29.19.61.49.5.82a.76.76,0,0,1-.28.34A27.42,27.42,0,0,1,17,6c-.35.21-.82.4-1.12.13a.92.92,0,0,1-.24-.47A14,14,0,0,1,15.5.71" transform="translate(1173.504 1880.513)" fill="none"  stroke-miterlimit="10" stroke-width="1.5"/>
    <path id="Path_170" data-name="Path 170" d="M11.63,13.5A37.36,37.36,0,0,0,13.25,27c1,2.94,2.38,5.7,3.61,8.54a67.6,67.6,0,0,1,3.31,9.6,2.22,2.22,0,0,1,.11.92c-.11.7-.81,1.13-1.39,1.54s-1.17,1.1-.92,1.77a1.34,1.34,0,0,0,.42.53,3.15,3.15,0,0,0,4-.34,5.64,5.64,0,0,0,1.58-4,33.861,33.861,0,0,0-.35-4.37c-.4-4.52.6-9,.51-13.58" transform="translate(1173.504 1880.513)" fill="none"  stroke-miterlimit="10" stroke-width="1.5"/>
    <path id="Path_171" data-name="Path 171" d="M18.9,5.16c.2,2.52,1.73,4.71,3.3,6.69a13.33,13.33,0,0,0,3.05,3c1.84,1.2,4,1.09,6.24,1.07h8.85c1.47,0,2.95,0,4.42-.07,2.33-.07,3.35.11,5.2,1.62a23.321,23.321,0,0,1,2.88,2.65,8.59,8.59,0,0,1,2.08,5.63l.2,7.73c.06,2.2.19,4.6,1.66,6.23.72.81,1.73,1.37,2.25,2.31a4.35,4.35,0,0,1,.44,2,5.35,5.35,0,0,1-1.17,3.69,3.18,3.18,0,0,1-3.59.93,1.39,1.39,0,0,1-.9-1.56c.17-.49.7-.74,1-1.13a2.26,2.26,0,0,0,.06-2.53,7.58,7.58,0,0,0-1.84-2A31.81,31.81,0,0,1,43.39,26.5" transform="translate(1173.504 1880.513)" fill="none"  stroke-miterlimit="10" stroke-width="1.5"/>
    <path id="Path_172" data-name="Path 172" d="M23.72,33.84c7.34-1,13.36-4.28,20.77-4.25" transform="translate(1173.504 1880.513)" fill="none"  stroke-miterlimit="10" stroke-width="1.5"/>
    <path id="Path_173" data-name="Path 173" d="M48.68,16.46a16.57,16.57,0,0,0,1.85-3A5.94,5.94,0,0,0,51,9.93a14.77,14.77,0,0,1-.4-1.72,1.64,1.64,0,0,1,.62-1.56,1.53,1.53,0,0,1,2,.63,4.44,4.44,0,0,1,.52,2.2l.11,1.91a11.45,11.45,0,0,1-.36,4.6c-.53,1.46-.83,2.68-2.38,2.68" transform="translate(1173.504 1880.513)" fill="none"  stroke-miterlimit="10" stroke-width="1.5"/>
  </g>
</symbol>
<!--hotel-dogsize-20-40kg -->


<!--hotel-dogsize-40kgup -->
<symbol id="hotel-dogsize-40kgup"  viewBox="0 0 61.333 57.292">
  <path id="Path_174" data-name="Path 174" d="M8,5.9a20.78,20.78,0,0,1-.84-3.26A3.24,3.24,0,0,1,7,.67c.17.08.34.15.51.24A6.75,6.75,0,0,1,9.78,3.44l1.11,1.8" transform="translate(0.245 0.404)" fill="none" stroke-miterlimit="10" stroke-width="1.5"/>
  <path id="Path_175" data-name="Path 175" d="M13.87,12.46A11.89,11.89,0,0,1,3.19,14.52a4.52,4.52,0,0,1-2-1.08A2.13,2.13,0,0,1,.6,11.33c.55-1.56,2.93-1.49,3.94-2.8a5.37,5.37,0,0,0,.71-2.22A5,5,0,0,1,7.4,3.89" transform="translate(0.245 0.404)" fill="none" stroke-miterlimit="10" stroke-width="1.5"/>
  <path id="Path_176" data-name="Path 176" d="M24.17,36a32.8,32.8,0,0,0,7.14.59,23,23,0,0,0,7.36-.71c2-.65,4-1.88,6.14-1.46" transform="translate(0.245 0.404)" fill="none" stroke-miterlimit="10" stroke-width="1.5"/>
  <path id="Path_177" data-name="Path 177" d="M45.12,22.77c-1.54,1.53-1.86,3.87-1.93,6a14.13,14.13,0,0,0,.17,3.05c.63,3.34,3.19,5.93,5.63,8.3a24,24,0,0,0,3.9,3.28,6.68,6.68,0,0,1,1.72,1.24,5.36,5.36,0,0,1,.82,3.73,5.84,5.84,0,0,1-1,3.66c-.55.64-1.43,1.18-1.4,2s.91,1.3,1.71,1.41a4.5,4.5,0,0,0,3.33-.84,6,6,0,0,0,2.16-4,17.53,17.53,0,0,0-.1-4.63,7.35,7.35,0,0,0-.3-1.62c-.29-.84-.87-1.56-1.14-2.42-.55-1.76.35-3.61.86-5.39a16.33,16.33,0,0,0-1.33-11.22,38.75,38.75,0,0,0-6.73-9.33,3.718,3.718,0,0,0-4.91-1c-1.91,1-4,2.31-6.45,2.38-4.85.15-10.56.24-14.67-2.67a25.76,25.76,0,0,1-6.44-7.15A17.14,17.14,0,0,0,16.51,4.2C14.46,2.34,12.1,2.15,9.47,3" transform="translate(0.245 0.404)" fill="none" stroke-miterlimit="10" stroke-width="1.5"/>
  <path id="Path_178" data-name="Path 178" d="M9.13,15.5c-1.13,5.37.88,11,4.16,15.42,1.41,1.88,3.09,3.69,3.6,6a13,13,0,0,1,.06,4l-.41,4.49a15.24,15.24,0,0,1-1.42,6.1,16.34,16.34,0,0,0-1,1.79,2.2,2.2,0,0,0,.07,2c.67,1,2.2.87,3.3.37a11.28,11.28,0,0,0,5.29-5.95,18.65,18.65,0,0,0,1.46-5.82,38.29,38.29,0,0,0,.05-4l-.13-5.57A44.77,44.77,0,0,0,23.74,28" transform="translate(0.245 0.404)" fill="none" stroke-miterlimit="10" stroke-width="1.5"/>
  <path id="Path_179" data-name="Path 179" d="M53.92,18.78a9,9,0,0,0,1.67-5.72,13.83,13.83,0,0,0-1.9-6.15C50.57,1.48,42.53,1.45,38.22,5.46a7.56,7.56,0,0,0-2,2.79c-.72,1.89,0,3.81.91,5.5a2.74,2.74,0,0,0,2.76,1.63,4.59,4.59,0,0,0,1.27-.59c2.51-1.57,5.8-2.74,8,.14" transform="translate(0.245 0.404)" fill="none"  stroke-miterlimit="10" stroke-width="1.5"/>
</symbol>
<!--hotel-dogsize-40kgup -->


<!--hotel-dogsize-40kgup -->
<symbol id="hotel-dogsize-40kgup"  viewBox="0 0 61.333 57.292">
  <path id="Path_174" data-name="Path 174" d="M8,5.9a20.78,20.78,0,0,1-.84-3.26A3.24,3.24,0,0,1,7,.67c.17.08.34.15.51.24A6.75,6.75,0,0,1,9.78,3.44l1.11,1.8" transform="translate(0.245 0.404)" fill="none"  stroke-miterlimit="10" stroke-width="1.5"/>
  <path id="Path_175" data-name="Path 175" d="M13.87,12.46A11.89,11.89,0,0,1,3.19,14.52a4.52,4.52,0,0,1-2-1.08A2.13,2.13,0,0,1,.6,11.33c.55-1.56,2.93-1.49,3.94-2.8a5.37,5.37,0,0,0,.71-2.22A5,5,0,0,1,7.4,3.89" transform="translate(0.245 0.404)" fill="none" sstroke-miterlimit="10" stroke-width="1.5"/>
  <path id="Path_176" data-name="Path 176" d="M24.17,36a32.8,32.8,0,0,0,7.14.59,23,23,0,0,0,7.36-.71c2-.65,4-1.88,6.14-1.46" transform="translate(0.245 0.404)" fill="none"  stroke-miterlimit="10" stroke-width="1.5"/>
  <path id="Path_177" data-name="Path 177" d="M45.12,22.77c-1.54,1.53-1.86,3.87-1.93,6a14.13,14.13,0,0,0,.17,3.05c.63,3.34,3.19,5.93,5.63,8.3a24,24,0,0,0,3.9,3.28,6.68,6.68,0,0,1,1.72,1.24,5.36,5.36,0,0,1,.82,3.73,5.84,5.84,0,0,1-1,3.66c-.55.64-1.43,1.18-1.4,2s.91,1.3,1.71,1.41a4.5,4.5,0,0,0,3.33-.84,6,6,0,0,0,2.16-4,17.53,17.53,0,0,0-.1-4.63,7.35,7.35,0,0,0-.3-1.62c-.29-.84-.87-1.56-1.14-2.42-.55-1.76.35-3.61.86-5.39a16.33,16.33,0,0,0-1.33-11.22,38.75,38.75,0,0,0-6.73-9.33,3.718,3.718,0,0,0-4.91-1c-1.91,1-4,2.31-6.45,2.38-4.85.15-10.56.24-14.67-2.67a25.76,25.76,0,0,1-6.44-7.15A17.14,17.14,0,0,0,16.51,4.2C14.46,2.34,12.1,2.15,9.47,3" transform="translate(0.245 0.404)" fill="none"  stroke-miterlimit="10" stroke-width="1.5"/>
  <path id="Path_178" data-name="Path 178" d="M9.13,15.5c-1.13,5.37.88,11,4.16,15.42,1.41,1.88,3.09,3.69,3.6,6a13,13,0,0,1,.06,4l-.41,4.49a15.24,15.24,0,0,1-1.42,6.1,16.34,16.34,0,0,0-1,1.79,2.2,2.2,0,0,0,.07,2c.67,1,2.2.87,3.3.37a11.28,11.28,0,0,0,5.29-5.95,18.65,18.65,0,0,0,1.46-5.82,38.29,38.29,0,0,0,.05-4l-.13-5.57A44.77,44.77,0,0,0,23.74,28" transform="translate(0.245 0.404)" fill="none" stroke-miterlimit="10" stroke-width="1.5"/>
  <path id="Path_179" data-name="Path 179" d="M53.92,18.78a9,9,0,0,0,1.67-5.72,13.83,13.83,0,0,0-1.9-6.15C50.57,1.48,42.53,1.45,38.22,5.46a7.56,7.56,0,0,0-2,2.79c-.72,1.89,0,3.81.91,5.5a2.74,2.74,0,0,0,2.76,1.63,4.59,4.59,0,0,0,1.27-.59c2.51-1.57,5.8-2.74,8,.14" transform="translate(0.245 0.404)" fill="none"  stroke-miterlimit="10" stroke-width="1.5"/>
</symbol>
<!--hotel-dogsize-40kgup -->





</defs>
</svg>
